<svg xmlns="http://www.w3.org/2000/svg" xmlns:xlink="http://www.w3.org/1999/xlink" width="1500mm" height="500mm" viewBox="0 0 1500 500"><defs><linearGradient id="a"><stop offset="0"/><stop offset="1" stop-color="#70221f"/></linearGradient><linearGradient xlink:href="#a" id="b" x1="465.667" y1="-286.595" x2="1579.184" y2="367.304" gradientUnits="userSpaceOnUse" gradientTransform="matrix(.9375 0 0 .83333 0 49.5)"/></defs><g transform="translate(0 203)"><rect width="1500" height="500" y="-203" rx="15" ry="15" fill="url(#b)"/><g style="line-height:1.25" stroke-width=".265"><path d="M223.37-15.797h-13.01v-1.447h13.012z" fill="#fff"/><path d="M236.062-15.797H223.05v-1.447h13.012z" fill="#fff"/><path d="M248.754-15.797h-13.012v-1.447h13.012z" fill="#fff"/><path d="M261.446-15.797h-13.012v-1.447h13.012z" fill="#fff"/><path d="M274.138-15.797h-13.013v-1.447h13.013zm25.383 0h-13.012v-1.447h13.012z" fill="#fff"/><path d="M312.213-15.797H299.2v-1.447h13.012z" fill="#fff"/><path d="M324.904-15.797h-13.012v-1.447h13.012z" fill="#fff"/><path d="M337.596-15.797h-13.012v-1.447h13.012z" fill="#fff"/><path d="M350.288-15.797h-13.012v-1.447h13.012z" fill="#fff"/><path d="M362.98-15.797h-13.012v-1.447h13.012z" fill="#fff"/><path d="M375.671-15.797H362.66v-1.447h13.012z" fill="#fff"/><path d="M388.363-15.797h-13.012v-1.447h13.012z" fill="#fff"/><path d="M401.055-15.797h-13.012v-1.447h13.012z" fill="#fff"/><path d="M413.747-15.797h-13.013v-1.447h13.013zm25.383 0h-13.012v-1.447h13.012zm63.459 0h-13.012v-1.447h13.012z" fill="#fff"/><path d="M515.28-15.797h-13.012v-1.447h13.012z" fill="#fff"/><path d="M527.972-15.797H514.96v-1.447h13.012z" fill="#fff"/><path d="M540.664-15.797h-13.012v-1.447h13.012z" fill="#fff"/><path d="M553.356-15.797h-13.012v-1.447h13.012z" fill="#fff"/><path d="M566.047-15.797h-13.012v-1.447h13.012z" fill="#fff"/><path d="M578.74-15.797h-13.013v-1.447h13.012z" fill="#fff"/><path d="M591.43-15.797h-13.01v-1.447h13.012z" fill="#fff"/><path d="M604.123-15.797H591.11v-1.447h13.013z" fill="#fff"/><path d="M616.814-15.797h-13.012v-1.447h13.012z" fill="#fff"/><path d="M629.506-15.797h-13.012v-1.447h13.012z" fill="#fff"/><path d="M642.198-15.797h-13.012v-1.447h13.012zm38.075 0h-13.012v-1.447h13.012z" fill="#fff"/><path d="M692.965-15.797h-13.012v-1.447h13.012zm63.458 0h-13.012v-1.447h13.012z" fill="#fff"/><path d="M769.115-15.797h-13.012v-1.447h13.012z" fill="#fff"/><path d="M781.807-15.797h-13.012v-1.447h13.012z" fill="#fff"/><path d="M794.499-15.797h-13.013v-1.447H794.5z" fill="#fff"/><path d="M807.19-15.797h-13.012v-1.447h13.012z" fill="#fff"/><path d="M819.882-15.797H806.87v-1.447h13.012z" fill="#fff"/><path d="M832.574-15.797h-13.012v-1.447h13.012z" fill="#fff"/><path d="M845.265-15.797h-13.012v-1.447h13.012z" fill="#fff"/><path d="M857.957-15.797h-13.012v-1.447h13.012z" fill="#fff"/><path d="M870.649-15.797h-13.012v-1.447h13.012z" fill="#fff"/><path d="M883.34-15.797h-13.01v-1.447h13.012z" fill="#fff"/><path d="M896.032-15.797H883.02v-1.447h13.012z" fill="#fff"/><path d="M908.724-15.797h-13.012v-1.447h13.012z" fill="#fff"/><path d="M921.416-15.797h-13.012v-1.447h13.012z" fill="#fff"/><path d="M934.108-15.797h-13.013v-1.447h13.013z" fill="#fff"/><path d="M946.8-15.797h-13.013v-1.447H946.8z" fill="#fff"/><path d="M1010.258-15.797h-13.012v-1.447h13.012zm101.534 0h-13.012v-1.447h13.012z" fill="#fd5750" fill-opacity=".996"/><path d="M1124.484-15.797h-13.013v-1.447h13.013z" fill="#fd5750" fill-opacity=".996"/><path d="M1137.175-15.797h-13.012v-1.447h13.012z" fill="#fd5750" fill-opacity=".996"/><path d="M1149.867-15.797h-13.012v-1.447h13.012z" fill="#fd5750" fill-opacity=".996"/><path d="M1162.559-15.797h-13.012v-1.447h13.012z" fill="#fd5750" fill-opacity=".996"/><path d="M1175.25-15.797h-13.012v-1.447h13.013z" fill="#fd5750" fill-opacity=".996"/><path d="M1187.942-15.797h-13.012v-1.447h13.012zm25.384 0h-13.012v-1.447h13.012z" fill="#fd5750" fill-opacity=".996"/><path d="M1226.017-15.797h-13.012v-1.447h13.012z" fill="#fd5750" fill-opacity=".996"/><path d="M1238.71-15.797h-13.013v-1.447h13.012z" fill="#fd5750" fill-opacity=".996"/><path d="M1251.4-15.797h-13.011v-1.447h13.012z" fill="#fd5750" fill-opacity=".996"/><path d="M1264.093-15.797h-13.013v-1.447h13.013z" fill="#fd5750" fill-opacity=".996"/><path d="M1276.784-15.797h-13.012v-1.447h13.012z" fill="#fd5750" fill-opacity=".996"/><path d="M1289.476-15.797h-13.012v-1.447h13.012z" fill="#fd5750" fill-opacity=".996"/><path d="M1302.168-15.797h-13.012v-1.447h13.012z" fill="#fd5750" fill-opacity=".996"/><path d="M1314.86-15.797h-13.013v-1.447h13.013z" fill="#fd5750" fill-opacity=".996"/><path d="M1327.551-15.797h-13.012v-1.447h13.012z" fill="#fd5750" fill-opacity=".996"/><path d="M208.333-7.798l-6.48 15.11h-1.84l6.48-15.11zm27.729 18.459H223.05V9.214h13.012z" fill="#fff"/><path d="M248.754 10.661h-13.012V9.214h13.012z" fill="#fff"/><path d="M261.446 10.661h-13.012V9.214h13.012zm10.345-18.459l-6.48 15.11h-1.84l6.48-15.11zm12.692 0l-6.48 15.11h-1.84l6.48-15.11zm27.73 18.459H299.2V9.214h13.012z" fill="#fff"/><path d="M324.904 10.661h-13.012V9.214h13.012z" fill="#fff"/><path d="M337.596 10.661h-13.012V9.214h13.012z" fill="#fff"/><path d="M350.288 10.661h-13.012V9.214h13.012zm10.346-18.459l-6.48 15.11h-1.84l6.48-15.11zm27.729 18.459h-13.012V9.214h13.012z" fill="#fff"/><path d="M401.055 10.661h-13.012V9.214h13.012zm16.557-18.459l6.48 15.11h-1.84l-6.48-15.11zm26.934-.972h1.54v21.167h-1.54zm43.004.972l-6.48 15.11h-1.839l6.48-15.11zm25.384 0l-6.48 15.11h-1.84l6.48-15.11zm27.73 18.459h-13.012V9.214h13.012z" fill="#fff"/><path d="M553.356 10.661h-13.012V9.214h13.012z" fill="#fff"/><path d="M566.047 10.661h-13.012V9.214h13.012z" fill="#fff"/><path d="M578.74 10.661h-13.013V9.214h13.012zm10.345-18.459l-6.48 15.11h-1.84l6.48-15.11zm27.729 18.459h-13.012V9.214h13.012z" fill="#fff"/><path d="M629.506 10.661h-13.012V9.214h13.012zm16.557-18.459l6.48 15.11h-1.84l-6.48-15.11zm19.172 0l-6.48 15.11h-1.84l6.48-15.11zm25.384 0l-6.48 15.11h-1.84l6.48-15.11zm50.766 0l-6.48 15.11h-1.84l6.48-15.11zm27.73 18.459h-13.012V9.214h13.012z" fill="#fff"/><path d="M781.807 10.661h-13.012V9.214h13.012z" fill="#fff"/><path d="M794.499 10.661h-13.013V9.214H794.5z" fill="#fff"/><path d="M807.19 10.661h-13.012V9.214h13.012zm10.346-18.459l-6.48 15.11h-1.84l6.48-15.11zm27.729 18.459h-13.012V9.214h13.012z" fill="#fff"/><path d="M857.957 10.661h-13.012V9.214h13.012z" fill="#fff"/><path d="M870.649 10.661h-13.012V9.214h13.012zm10.346-18.459l-6.48 15.11h-1.84l6.48-15.11zm27.729 18.459h-13.012V9.214h13.012z" fill="#fff"/><path d="M921.416 10.661h-13.012V9.214h13.012z" fill="#fff"/><path d="M934.108 10.661h-13.013V9.214h13.013zm10.345-18.459l-6.48 15.11h-1.84l6.48-15.11z" fill="#fff"/><path d="M990.29-8.77h1.54v21.167h-1.54zm25.384 0h1.54v21.167h-1.54zm81.08.972l-6.48 15.11h-1.84l6.48-15.11zm25.383 0l-6.48 15.11h-1.84l6.48-15.11zm27.73 18.459h-13.012V9.214h13.012z" fill="#fd5750" fill-opacity=".998"/><path d="M1162.559 10.661h-13.012V9.214h13.012z" fill="#fd5750" fill-opacity=".998"/><path d="M1175.25 10.661h-13.012V9.214h13.013zm10.346-18.459l-6.48 15.11h-1.84l6.48-15.11zm12.692 0l-6.48 15.11h-1.84l6.48-15.11zm27.729 18.459h-13.012V9.214h13.012z" fill="#fd5750" fill-opacity=".998"/><path d="M1238.71 10.661h-13.013V9.214h13.012z" fill="#fd5750" fill-opacity=".998"/><path d="M1251.4 10.661h-13.011V9.214h13.012z" fill="#fd5750" fill-opacity=".998"/><path d="M1264.093 10.661h-13.013V9.214h13.013zm10.345-18.459l-6.48 15.11h-1.84l6.48-15.11zm40.422 18.459h-13.013V9.214h13.013zm10.345-18.459l-6.48 15.11h-1.84l6.48-15.11z" fill="#fd5750" fill-opacity=".998"/><path d="M201.853 18.66l6.48 15.11h-1.84l-6.48-15.11zm21.517 18.46h-13.01v-1.447h13.012z" fill="#fff"/><path d="M236.062 37.12H223.05v-1.447h13.012zm16.558-18.46l6.48 15.11h-1.84l-6.48-15.11zm19.171 0l-6.48 15.11h-1.84l6.48-15.11zm27.73 18.46h-13.012v-1.447h13.012z" fill="#fff"/><path d="M312.213 37.12H299.2v-1.447h13.012zm10.345-18.46l-6.48 15.11h-1.84l6.48-15.11zm25.384 0l-6.48 15.11h-1.84l6.48-15.11zm25.383 0l-6.48 15.11h-1.84l6.48-15.11zm15.038 18.46h-13.012v-1.447h13.012zm10.346-18.46l-6.48 15.11h-1.84l6.48-15.11zm25.383 0l-6.48 15.11h-1.84l6.48-15.11zm20.454-.97h1.54v21.166h-1.54zm30.314.97l-6.481 15.11h-1.84l6.48-15.11zm25.383 0l-6.48 15.11h-1.84l6.48-15.11zm27.729 18.46H514.96v-1.447h13.012z" fill="#fff"/><path d="M540.664 37.12h-13.012v-1.447h13.012zm10.346-18.46l-6.48 15.11h-1.84l6.48-15.11zm25.383 0l-6.48 15.11h-1.84l6.48-15.11zm25.383 0l-6.48 15.11h-1.84l6.48-15.11zm15.038 18.46h-13.012v-1.447h13.012zm10.346-18.46l-6.48 15.11h-1.84l6.48-15.11zm25.383 0l-6.48 15.11h-1.84l6.48-15.11zm25.384 0l-6.48 15.11h-1.84l6.48-15.11zm50.767 0l-6.48 15.11h-1.84l6.48-15.11zm27.729 18.46h-13.012v-1.447h13.012z" fill="#fff"/><path d="M769.115 37.12h-13.012v-1.447h13.012zm10.345-18.46l-6.48 15.11h-1.84l6.481-15.11zm31.596 0l6.48 15.11h-1.84l-6.48-15.11zm21.518 18.46h-13.012v-1.447h13.012z" fill="#fff"/><path d="M845.265 37.12h-13.012v-1.447h13.012zm16.558-18.46l6.48 15.11h-1.84l-6.48-15.11zm12.691 0l6.48 15.11h-1.84l-6.48-15.11zm21.518 18.46H883.02v-1.447h13.012z" fill="#fff"/><path d="M908.724 37.12h-13.012v-1.447h13.012zm16.557-18.46l6.48 15.11h-1.84l-6.48-15.11z" fill="#fff"/><path d="M990.29 17.69h1.54v21.166h-1.54zm25.384 0h1.54v21.166h-1.54zm30.313.97l-6.48 15.11h-1.84l6.48-15.11zm7.762-.97h1.54v21.166h-1.54zm30.313.97l-6.48 15.11h-1.84l6.48-15.11zm25.384 0l-6.48 15.11h-1.84l6.48-15.11zm6.211 0l6.48 15.11h-1.84l-6.48-15.11zm21.518 18.46h-13.012v-1.447h13.012z" fill="#fd5750" fill-opacity=".996"/><path d="M1149.867 37.12h-13.012v-1.447h13.012zm16.557-18.46l6.48 15.11h-1.84l-6.48-15.11zm19.172 0l-6.48 15.11h-1.84l6.48-15.11zm25.384 0l-6.48 15.11h-1.84l6.48-15.11zm27.73 18.46h-13.013v-1.447h13.012z" fill="#fd5750" fill-opacity=".996"/><path d="M1251.4 37.12h-13.011v-1.447h13.012zm23.038-18.46l-6.48 15.11h-1.84l6.48-15.11zm25.384 0l-6.48 15.11h-1.84l6.48-15.11z" fill="#fd5750" fill-opacity=".996"/><path d="M197.987 63.578h-13.012V62.13h13.012z" fill="#fff"/><path d="M210.679 63.578h-13.012V62.13h13.012z" fill="#fff"/><path d="M223.37 63.578h-13.01V62.13h13.012zm10.346-18.459l-6.48 15.11h-1.84l6.48-15.11zm25.384 0l-6.48 15.11h-1.84l6.48-15.11zm25.383 0l-6.48 15.11h-1.84l6.48-15.11zm15.038 18.459h-13.012V62.13h13.012z" fill="#fff"/><path d="M312.213 63.578H299.2V62.13h13.012z" fill="#fff"/><path d="M324.904 63.578h-13.012V62.13h13.012zm10.346-18.459l-6.48 15.11h-1.84l6.48-15.11zm27.73 18.459h-13.012V62.13h13.012zm7.803-6.057l.165.248q-.589 2.315-2.005 5.447h-1.57q.785-3.338 1.146-5.695zm30.272 6.057h-13.012V62.13h13.012zM411.4 45.119l-6.48 15.11h-1.84l6.48-15.11zm7.762-.972h1.54v21.167h-1.54zm25.384 0h1.54v21.167h-1.54zm17.621.972l-6.48 15.11h-1.84l6.48-15.11zm25.383 0l-6.48 15.11h-1.839l6.48-15.11zm25.384 0l-6.48 15.11h-1.84l6.48-15.11zm15.038 18.459H514.96V62.13h13.012z" fill="#fff"/><path d="M540.664 63.578h-13.012V62.13h13.012z" fill="#fff"/><path d="M553.356 63.578h-13.012V62.13h13.012zm10.345-18.459l-6.48 15.11h-1.84l6.48-15.11zm27.729 18.459h-13.01V62.13h13.012zm7.804-6.057l.165.248q-.589 2.315-2.005 5.447h-1.57q.785-3.338 1.147-5.695zm30.272 6.057h-13.012V62.13h13.012zm10.346-18.459l-6.48 15.11h-1.84l6.48-15.11zm25.383 0l-6.48 15.11h-1.84l6.48-15.11zm15.038 18.459h-13.012V62.13h13.012z" fill="#fff"/><path d="M692.965 63.578h-13.012V62.13h13.012z" fill="#fff"/><path d="M705.656 63.578h-13.012V62.13h13.012zm10.346-18.459l-6.48 15.11h-1.84l6.48-15.11zm25.383 0l-6.48 15.11h-1.84l6.48-15.11zm15.038 18.459h-13.012V62.13h13.012z" fill="#fff"/><path d="M769.115 63.578h-13.012V62.13h13.012z" fill="#fff"/><path d="M781.807 63.578h-13.012V62.13h13.012zm25.383 0h-13.012V62.13h13.012z" fill="#fff"/><path d="M819.882 63.578H806.87V62.13h13.012z" fill="#fff"/><path d="M832.574 63.578h-13.012V62.13h13.012zm10.346-18.459l-6.48 15.11h-1.84l6.48-15.11zm25.383 0l-6.48 15.11h-1.84l6.48-15.11zm15.037 18.459h-13.01V62.13h13.012z" fill="#fff"/><path d="M896.032 63.578H883.02V62.13h13.012zm10.346-18.459l-6.48 15.11h-1.84l6.48-15.11zm25.383 0l-6.48 15.11h-1.84l6.48-15.11z" fill="#fff"/><path d="M990.29 44.147h1.54v21.167h-1.54zm25.384 0h1.54v21.167h-1.54zm17.621.972l-6.48 15.11h-1.84l6.48-15.11zm20.454-.972h1.54v21.167h-1.54zm17.621.972l-6.48 15.11h-1.84l6.48-15.11zm25.384 0l-6.48 15.11h-1.84l6.48-15.11zm15.038 18.459h-13.012V62.13h13.012z" fill="#fd5750" fill-opacity=".996"/><path d="M1124.484 63.578h-13.013V62.13h13.013z" fill="#fd5750" fill-opacity=".996"/><path d="M1137.175 63.578h-13.012V62.13h13.012zm10.345-18.459l-6.48 15.11h-1.839l6.48-15.11zm25.384 0l-6.48 15.11h-1.84l6.48-15.11zm25.384 0l-6.48 15.11h-1.84l6.48-15.11zm15.038 18.459h-13.012V62.13h13.012zm10.345-18.459l-6.48 15.11h-1.84l6.48-15.11zm25.384 0l-6.48 15.11h-1.84l6.48-15.11zm12.691 0l-6.48 15.11h-1.84l6.48-15.11zm25.384 0l-6.48 15.11h-1.84l6.48-15.11z" fill="#fd5750" fill-opacity=".996"/><path d="M182.95 71.577l-6.48 15.11h-1.84l6.48-15.11zm15.037 18.459h-13.012V88.59h13.012z" fill="#fff"/><path d="M210.679 90.036h-13.012V88.59h13.012z" fill="#fff"/><path d="M223.37 90.036h-13.01V88.59h13.012z" fill="#fff"/><path d="M236.062 90.036H223.05V88.59h13.012zm10.346-18.459l-6.48 15.11h-1.84l6.48-15.11zm15.038 18.459h-13.012V88.59h13.012z" fill="#fff"/><path d="M274.138 90.036h-13.013V88.59h13.013z" fill="#fff"/><path d="M286.83 90.036h-13.013V88.59h13.012z" fill="#fff"/><path d="M299.521 90.036h-13.012V88.59h13.012z" fill="#fff"/><path d="M312.213 90.036H299.2V88.59h13.012zm10.345-18.459l-6.48 15.11h-1.84l6.48-15.11zm15.038 18.459h-13.012V88.59h13.012zm10.346-18.459l-6.48 15.11h-1.84l6.48-15.11zm20.453-.971h1.54v21.166h-1.54zm19.968 19.43h-13.012V88.59h13.012zm5.416-19.43h1.54v21.166h-1.54zm25.383 0h1.54v21.166h-1.54zm19.968 19.43h-13.012V88.59h13.012z" fill="#fff"/><path d="M451.822 90.036H438.81V88.59h13.012z" fill="#fff"/><path d="M464.514 90.036H451.5V88.59h13.013zm10.346-18.459l-6.481 15.11h-1.84l6.48-15.11zm15.037 18.459h-13.012V88.59h13.012z" fill="#fff"/><path d="M502.589 90.036h-13.012V88.59h13.012z" fill="#fff"/><path d="M515.28 90.036h-13.012V88.59h13.012z" fill="#fff"/><path d="M527.972 90.036H514.96V88.59h13.012z" fill="#fff"/><path d="M540.664 90.036h-13.012V88.59h13.012zm10.346-18.459l-6.48 15.11h-1.84l6.48-15.11zm15.037 18.459h-13.012V88.59h13.012zm10.346-18.459l-6.48 15.11h-1.84l6.48-15.11zm20.454-.971h1.54v21.166h-1.54zm19.967 19.43h-13.012V88.59h13.012zm10.346-18.459l-6.48 15.11h-1.84l6.48-15.11zm15.038 18.459h-13.012V88.59h13.012z" fill="#fff"/><path d="M654.89 90.036h-13.013V88.59h13.013z" fill="#fff"/><path d="M667.581 90.036H654.57V88.59h13.012z" fill="#fff"/><path d="M680.273 90.036h-13.012V88.59h13.012z" fill="#fff"/><path d="M692.965 90.036h-13.012V88.59h13.012zm10.345-18.459l-6.48 15.11h-1.84l6.48-15.11zm15.038 18.459h-13.012V88.59h13.012z" fill="#fff"/><path d="M731.04 90.036h-13.012V88.59h13.012z" fill="#fff"/><path d="M743.732 90.036h-13.013V88.59h13.013z" fill="#fff"/><path d="M756.423 90.036h-13.012V88.59h13.012z" fill="#fff"/><path d="M769.115 90.036h-13.012V88.59h13.012zm10.345-18.459l-6.48 15.11h-1.84l6.481-15.11zm12.692 0l-6.48 15.11h-1.84l6.48-15.11zm15.038 18.459h-13.012V88.59h13.012z" fill="#fff"/><path d="M819.882 90.036H806.87V88.59h13.012z" fill="#fff"/><path d="M832.574 90.036h-13.012V88.59h13.012z" fill="#fff"/><path d="M845.265 90.036h-13.012V88.59h13.012zm10.346-18.459l-6.48 15.11h-1.84l6.48-15.11zm15.038 18.459h-13.012V88.59h13.012z" fill="#fff"/><path d="M883.34 90.036h-13.01V88.59h13.012z" fill="#fff"/><path d="M896.032 90.036H883.02V88.59h13.012z" fill="#fff"/><path d="M908.724 90.036h-13.012V88.59h13.012zm10.346-18.459l-6.48 15.11h-1.84l6.48-15.11z" fill="#fff"/><path d="M990.29 70.606h1.54v21.166h-1.54zm19.968 19.43h-13.012V88.59h13.012z" fill="#fd5750" fill-opacity=".996"/><path d="M1022.95 90.036h-13.012V88.59h13.012zm10.345-18.459l-6.48 15.11h-1.84l6.48-15.11zm7.762-.971h1.54v21.166h-1.54zm19.968 19.43h-13.012V88.59h13.012z" fill="#fd5750" fill-opacity=".996"/><path d="M1073.717 90.036h-13.013V88.59h13.013zm10.345-18.459l-6.48 15.11h-1.84l6.48-15.11zm12.692 0l-6.48 15.11h-1.84l6.48-15.11zm15.038 18.459h-13.012V88.59h13.012z" fill="#fd5750" fill-opacity=".996"/><path d="M1124.484 90.036h-13.013V88.59h13.013z" fill="#fd5750" fill-opacity=".996"/><path d="M1137.175 90.036h-13.012V88.59h13.012z" fill="#fd5750" fill-opacity=".996"/><path d="M1149.867 90.036h-13.012V88.59h13.012zm10.346-18.459l-6.48 15.11h-1.84l6.48-15.11zm6.211 0l6.48 15.11h-1.84l-6.48-15.11zm21.518 18.459h-13.012V88.59h13.012z" fill="#fd5750" fill-opacity=".996"/><path d="M1200.634 90.036h-13.012V88.59h13.012z" fill="#fd5750" fill-opacity=".996"/><path d="M1213.326 90.036h-13.012V88.59h13.012z" fill="#fd5750" fill-opacity=".996"/><path d="M1226.017 90.036h-13.012V88.59h13.012zm10.346-18.459l-6.48 15.11h-1.84l6.48-15.11zm15.037 18.459h-13.011V88.59h13.012z" fill="#fd5750" fill-opacity=".996"/><path d="M1264.093 90.036h-13.013V88.59h13.013z" fill="#fd5750" fill-opacity=".996"/><path d="M1276.784 90.036h-13.012V88.59h13.012zm10.346-18.459l-6.48 15.11h-1.84l6.48-15.11z" fill="#fd5750" fill-opacity=".996"/></g></g></svg>